<svg width="60" height="60" viewBox="0 0 60 60" fill="none" xmlns="http://www.w3.org/2000/svg">
<rect width="60" height="60" fill="white"/>
<rect x="0.5" y="0.5" width="59" height="59" rx="11.5" fill="#F5F9FF"/>
<rect x="0.5" y="0.5" width="59" height="59" rx="11.5" stroke="#0A60E1"/>
<path d="M27.5837 18.5258L18.9212 25.4633C17.9462 26.2383 17.3212 27.8759 17.5337 29.1009L19.1962 39.0508C19.4962 40.8258 21.1962 42.2634 22.9962 42.2634H36.9962C38.7837 42.2634 40.4962 40.8133 40.7962 39.0508L42.4587 29.1009C42.6587 27.8759 42.0337 26.2383 41.0712 25.4633L32.4087 18.5383C31.0712 17.4633 28.9087 17.4633 27.5837 18.5258Z" stroke="#0A60E1" stroke-width="1.5" stroke-linecap="round" stroke-linejoin="round"/>
<path d="M27.3516 32.9762C28.9391 31.4637 31.0641 31.4637 32.6516 32.9762" stroke="#0A60E1" stroke-width="1.5" stroke-linecap="round" stroke-linejoin="round"/>
<path d="M35.3 30.325C34.625 29.6625 33.875 29.15 33.1 28.775C31.1125 27.825 28.8875 27.825 26.8875 28.775C26.1125 29.15 25.375 29.6625 24.6875 30.325" stroke="#0A60E1" stroke-width="1.5" stroke-linecap="round" stroke-linejoin="round"/>
<path d="M29.9944 36.25H30.0056" stroke="#0A60E1" stroke-width="1.5" stroke-linecap="round" stroke-linejoin="round"/>
</svg>
